Coordinates
version=1
nRows=13
nColumns=40
inDegrees=yes

Units are S.I. units (second, meters, Newtons, ...)
If the header above contains a line with 'inDegrees', this indicates whether rotational values are in degrees (yes) or radians (no).

endheader
time	pelvis_tilt	pelvis_list	pelvis_rotation	pelvis_tx	pelvis_ty	pelvis_tz	hip_flexion_r	hip_adduction_r	hip_rotation_r	knee_angle_r	knee_angle_r_beta	ankle_angle_r	subtalar_angle_r	mtp_angle_r	hip_flexion_l	hip_adduction_l	hip_rotation_l	knee_angle_l	knee_angle_l_beta	ankle_angle_l	subtalar_angle_l	mtp_angle_l	lumbar_extension	lumbar_bending	lumbar_rotation	arm_flex_r	arm_add_r	arm_rot_r	elbow_flex_r	pro_sup_r	wrist_flex_r	wrist_dev_r	arm_flex_l	arm_add_l	arm_rot_l	elbow_flex_l	pro_sup_l	wrist_flex_l	wrist_dev_l
      5.96500000	    -20.47680073	     -4.36535761	      3.86174019	     -0.48438572	      0.66854737	     -0.89586240	     81.64943557	    -17.43850661	     -6.63457361	     97.95056648	      1.70955989	     38.84611303	      0.00000000	      0.00000000	     89.12536607	    -22.62813218	     -0.39748063	     97.66434550	      1.70456439	     29.71748263	      0.00000000	      0.00000000	    -33.10195190	      2.61523565	     -1.15294979	     33.68329644	    -52.82601059	     89.77371519	    104.00458689	     88.84213697	      0.00000000	      0.00000000	     30.14921586	    -57.06421140	     89.79122741	    108.37990453	     88.83652509	      0.00000000	      0.00000000
      5.97000000	    -20.79124507	     -4.39220366	      3.88562236	     -0.48457722	      0.66954614	     -0.89609606	     81.83228191	    -17.43666647	     -6.65899851	     97.67342640	      1.70472288	     38.74218368	      0.00000000	      0.00000000	     89.28145117	    -22.50734375	     -0.45259567	     97.40083533	      1.69996527	     29.65032022	      0.00000000	      0.00000000	    -32.88300657	      2.69310571	     -1.14548931	     33.62838544	    -52.80207363	     89.77552292	    103.93099330	     88.84541613	      0.00000000	      0.00000000	     30.12418421	    -56.96744759	     89.79244776	    108.25441351	     88.84361434	      0.00000000	      0.00000000
      5.97500000	    -20.93848718	     -4.39016530	      3.80691720	     -0.48465198	      0.67109713	     -0.89603881	     81.80769098	    -17.29020921	     -6.66394794	     97.34355023	      1.69896546	     38.71001500	      0.00000000	      0.00000000	     89.21216804	    -22.51487181	     -0.51912090	     97.12356212	      1.69512594	     29.58284958	      0.00000000	      0.00000000	    -32.86606450	      2.67700373	     -1.04296129	     33.61901621	    -52.79743433	     89.77583711	    103.95999182	     88.85942346	      0.00000000	      0.00000000	     30.18960124	    -56.88320232	     89.79314927	    108.17552889	     88.86856570	      0.00000000	      0.00000000
      5.98000000	    -21.10900297	     -4.44947492	      3.78760346	     -0.48451964	      0.67268535	     -0.89617872	     81.75520399	    -17.20144938	     -6.74386591	     97.01776657	      1.69327946	     38.69327525	      0.00000000	      0.00000000	     89.17928212	    -22.45898584	     -0.52575237	     96.83412376	      1.69007429	     29.54686439	      0.00000000	      0.00000000	    -32.78792496	      2.76378941	     -0.98268650	     33.62935879	    -52.75477218	     89.77669828	    103.90447003	     88.85688969	      0.00000000	      0.00000000	     30.19626375	    -56.75690028	     89.79446392	    108.00284246	     88.86682044	      0.00000000	      0.00000000
      5.98500000	    -21.35410206	     -4.39323900	      3.71755614	     -0.48458513	      0.67428808	     -0.89622851	     81.84683091	    -17.09265566	     -6.67994851	     96.67672769	      1.68732721	     38.56081034	      0.00000000	      0.00000000	     89.14127719	    -22.40310194	     -0.65274189	     96.50127175	      1.68426492	     29.48549091	      0.00000000	      0.00000000	    -32.63326264	      2.70353067	     -0.95227632	     33.67233251	    -52.70921018	     89.77739982	    103.80651686	     88.85854143	      0.00000000	      0.00000000	     30.24217077	    -56.67312649	     89.79555276	    107.85037700	     88.87174848	      0.00000000	      0.00000000
      5.99000000	    -21.48577537	     -4.44978346	      3.72142512	     -0.48439412	      0.67608230	     -0.89629875	     81.72912359	    -17.00133939	     -6.74988682	     96.33735060	      1.68140396	     38.51702480	      0.00000000	      0.00000000	     89.03800833	    -22.32481492	     -0.66471256	     96.16902834	      1.67846618	     29.44827573	      0.00000000	      0.00000000	    -32.58566836	      2.79368733	     -0.92617755	     33.68979808	    -52.65589364	     89.77918361	    103.74434503	     88.85927559	      0.00000000	      0.00000000	     30.28226696	    -56.59382216	     89.79624871	    107.71811267	     88.87197805	      0.00000000	      0.00000000
      5.99500000	    -21.56860015	     -4.36706083	      3.76694407	     -0.48416411	      0.67835213	     -0.89683912	     81.55422296	    -17.03289172	     -6.70206578	     95.92512764	      1.67420931	     38.44671016	      0.00000000	      0.00000000	     88.75479093	    -22.11894776	     -0.80976039	     95.79687664	      1.67197091	     29.37787630	      0.00000000	      0.00000000	    -32.59271095	      2.81093256	     -0.96295860	     33.77172422	    -52.64600413	     89.77798088	    103.66275253	     88.85560931	      0.00000000	      0.00000000	     30.36822003	    -56.44566629	     89.79851390	    107.58104020	     88.86749723	      0.00000000	      0.00000000
      6.00000000	    -21.89022179	     -4.66798230	      3.62709008	     -0.48403864	      0.67957464	     -0.89649242	     81.61042684	    -16.67988764	     -6.96456258	     95.58818330	      1.66832852	     38.39508406	      0.00000000	      0.00000000	     89.05704810	    -22.19498489	     -0.48720001	     95.54442787	      1.66756485	     29.33418018	      0.00000000	      0.00000000	    -32.23400766	      3.04245212	     -0.66399798	     33.67446769	    -52.65440612	     89.77904195	    103.56081704	     88.86671833	      0.00000000	      0.00000000	     30.33893782	    -56.30203443	     89.79862935	    107.33305659	     88.88495163	      0.00000000	      0.00000000
      6.00500000	    -22.02958556	     -4.51182897	      3.67853074	     -0.48363199	      0.68179793	     -0.89701134	     81.51892985	    -16.71785376	     -6.81239613	     95.19164140	      1.66140756	     38.32765015	      0.00000000	      0.00000000	     88.77238431	    -21.96533619	     -0.72967644	     95.16181463	      1.66088699	     29.26187195	      0.00000000	      0.00000000	    -32.12918841	      3.00013729	     -0.76739840	     33.76189927	    -52.60914696	     89.78013231	    103.46525901	     88.85746672	      0.00000000	      0.00000000	     30.45673103	    -56.15914296	     89.80032191	    107.15838053	     88.87579908	      0.00000000	      0.00000000
      6.01000000	    -22.22735594	     -4.37187742	      3.75277041	     -0.48319560	      0.68379200	     -0.89749545	     81.51829622	    -16.79484473	     -6.66874134	     94.89241808	      1.65618513	     38.27798568	      0.00000000	      0.00000000	     88.54491637	    -21.70187086	     -0.94954853	     94.76195391	      1.65390810	     29.27184274	      0.00000000	      0.00000000	    -31.88644996	      2.96880903	     -0.87190630	     33.64670419	    -52.52463101	     89.77879517	    103.19570436	     88.85860357	      0.00000000	      0.00000000	     30.45703500	    -55.99306229	     89.80065598	    106.82984673	     88.88184232	      0.00000000	      0.00000000
      6.01500000	    -22.38832373	     -4.24508139	      3.59897196	     -0.48259747	      0.68608791	     -0.89747322	     81.44794038	    -16.57324547	     -6.50617467	     94.46874115	      1.64879057	     38.17925692	      0.00000000	      0.00000000	     88.26571071	    -21.72093345	     -1.16959847	     94.36620207	      1.64700093	     29.25802868	      0.00000000	      0.00000000	    -31.70951172	      2.81079417	     -0.80808761	     33.64591636	    -52.39483104	     89.77936109	    102.95472857	     88.86097768	      0.00000000	      0.00000000	     30.49258141	    -55.87407796	     89.80069544	    106.56226693	     88.88568191	      0.00000000	      0.00000000
      6.02000000	    -22.54779685	     -4.22417683	      3.59233619	     -0.48208388	      0.68829192	     -0.89782835	     81.33514130	    -16.46931770	     -6.44707084	     94.07607028	      1.64193717	     38.11283786	      0.00000000	      0.00000000	     88.07379329	    -21.56193528	     -1.23680797	     93.97657510	      1.64020066	     29.18789622	      0.00000000	      0.00000000	    -31.48522900	      2.85630119	     -0.80380426	     33.67828059	    -52.36878975	     89.78074382	    102.84980494	     88.85908903	      0.00000000	      0.00000000	     30.53767452	    -55.77643106	     89.80139632	    106.43519521	     88.88273042	      0.00000000	      0.00000000
      6.02500000	    -22.68459554	     -4.15532388	      3.49326066	     -0.48185619	      0.69112234	     -0.89801246	     81.15985476	    -16.26064483	     -6.34112136	     93.52461028	      1.63231238	     38.01139933	      0.00000000	      0.00000000	     87.77710605	    -21.44282144	     -1.33026043	     93.46443032	      1.63126204	     29.09983554	      0.00000000	      0.00000000	    -31.34188238	      2.81359557	     -0.74668350	     33.81028472	    -52.30520134	     89.78019860	    102.68378896	     88.85420174	      0.00000000	      0.00000000	     30.67380055	    -55.64039964	     89.80179484	    106.21150874	     88.87823956	      0.00000000	      0.00000000
